<svg xmlns="http://www.w3.org/2000/svg" xmlns:xlink="http://www.w3.org/1999/xlink" width="405" height="466" viewBox="0 0 405 466">
  <defs>
    <filter id="Ellipse_7" x="49" y="391" width="60" height="60" filterUnits="userSpaceOnUse">
      <feOffset dy="3" input="SourceAlpha"/>
      <feGaussianBlur stdDeviation="3" result="blur"/>
      <feFlood flood-opacity="0.161"/>
      <feComposite operator="in" in2="blur"/>
      <feComposite in="SourceGraphic"/>
    </filter>
    <filter id="Ellipse_8" x="0" y="288" width="47" height="48" filterUnits="userSpaceOnUse">
      <feOffset dy="3" input="SourceAlpha"/>
      <feGaussianBlur stdDeviation="3" result="blur-2"/>
      <feFlood flood-opacity="0.161"/>
      <feComposite operator="in" in2="blur-2"/>
      <feComposite in="SourceGraphic"/>
    </filter>
    <filter id="Ellipse_9" x="19" y="95" width="36" height="37" filterUnits="userSpaceOnUse">
      <feOffset dy="3" input="SourceAlpha"/>
      <feGaussianBlur stdDeviation="3" result="blur-3"/>
      <feFlood flood-opacity="0.161"/>
      <feComposite operator="in" in2="blur-3"/>
      <feComposite in="SourceGraphic"/>
    </filter>
    <filter id="Ellipse_10" x="70" y="0" width="54" height="56" filterUnits="userSpaceOnUse">
      <feOffset dy="3" input="SourceAlpha"/>
      <feGaussianBlur stdDeviation="3" result="blur-4"/>
      <feFlood flood-opacity="0.161"/>
      <feComposite operator="in" in2="blur-4"/>
      <feComposite in="SourceGraphic"/>
    </filter>
    <filter id="Ellipse_12" x="192" y="366" width="43" height="43" filterUnits="userSpaceOnUse">
      <feOffset dy="3" input="SourceAlpha"/>
      <feGaussianBlur stdDeviation="3" result="blur-5"/>
      <feFlood flood-opacity="0.161"/>
      <feComposite operator="in" in2="blur-5"/>
      <feComposite in="SourceGraphic"/>
    </filter>
    <filter id="Ellipse_13" x="267" y="7" width="43" height="43" filterUnits="userSpaceOnUse">
      <feOffset dy="3" input="SourceAlpha"/>
      <feGaussianBlur stdDeviation="3" result="blur-6"/>
      <feFlood flood-opacity="0.161"/>
      <feComposite operator="in" in2="blur-6"/>
      <feComposite in="SourceGraphic"/>
    </filter>
    <filter id="Ellipse_14" x="336" y="210" width="69" height="69" filterUnits="userSpaceOnUse">
      <feOffset dy="3" input="SourceAlpha"/>
      <feGaussianBlur stdDeviation="3" result="blur-7"/>
      <feFlood flood-opacity="0.161"/>
      <feComposite operator="in" in2="blur-7"/>
      <feComposite in="SourceGraphic"/>
    </filter>
    <filter id="Ellipse_15" x="267" y="285" width="23" height="23" filterUnits="userSpaceOnUse">
      <feOffset dy="3" input="SourceAlpha"/>
      <feGaussianBlur stdDeviation="3" result="blur-8"/>
      <feFlood flood-opacity="0.161"/>
      <feComposite operator="in" in2="blur-8"/>
      <feComposite in="SourceGraphic"/>
    </filter>
    <filter id="Ellipse_16" x="84" y="301" width="25" height="25" filterUnits="userSpaceOnUse">
      <feOffset dy="3" input="SourceAlpha"/>
      <feGaussianBlur stdDeviation="3" result="blur-9"/>
      <feFlood flood-opacity="0.161"/>
      <feComposite operator="in" in2="blur-9"/>
      <feComposite in="SourceGraphic"/>
    </filter>
    <filter id="Ellipse_17" x="55" y="172" width="25" height="25" filterUnits="userSpaceOnUse">
      <feOffset dy="3" input="SourceAlpha"/>
      <feGaussianBlur stdDeviation="3" result="blur-10"/>
      <feFlood flood-opacity="0.161"/>
      <feComposite operator="in" in2="blur-10"/>
      <feComposite in="SourceGraphic"/>
    </filter>
    <filter id="Ellipse_18" x="165" y="80" width="26" height="26" filterUnits="userSpaceOnUse">
      <feOffset dy="3" input="SourceAlpha"/>
      <feGaussianBlur stdDeviation="3" result="blur-11"/>
      <feFlood flood-opacity="0.161"/>
      <feComposite operator="in" in2="blur-11"/>
      <feComposite in="SourceGraphic"/>
    </filter>
    <filter id="Ellipse_19" x="344" y="95" width="36" height="37" filterUnits="userSpaceOnUse">
      <feOffset dy="3" input="SourceAlpha"/>
      <feGaussianBlur stdDeviation="3" result="blur-12"/>
      <feFlood flood-opacity="0.161"/>
      <feComposite operator="in" in2="blur-12"/>
      <feComposite in="SourceGraphic"/>
    </filter>
    <filter id="Ellipse_20" x="292" y="406" width="60" height="60" filterUnits="userSpaceOnUse">
      <feOffset dy="3" input="SourceAlpha"/>
      <feGaussianBlur stdDeviation="3" result="blur-13"/>
      <feFlood flood-opacity="0.161"/>
      <feComposite operator="in" in2="blur-13"/>
      <feComposite in="SourceGraphic"/>
    </filter>
    <filter id="Ellipse_21" x="299" y="194" width="23" height="23" filterUnits="userSpaceOnUse">
      <feOffset dy="3" input="SourceAlpha"/>
      <feGaussianBlur stdDeviation="3" result="blur-14"/>
      <feFlood flood-opacity="0.161"/>
      <feComposite operator="in" in2="blur-14"/>
      <feComposite in="SourceGraphic"/>
    </filter>
  </defs>
  <g id="Group_5" data-name="Group 5" transform="translate(-13 -258)">
    <path id="Rectangle_27" data-name="Rectangle 27" d="M77,0H94a77,77,0,0,1,77,77V94a77,77,0,0,1-77,77H10A10,10,0,0,1,0,161V77A77,77,0,0,1,77,0Z" transform="translate(129 378)" fill="#ee4b4c"/>
    <circle id="Ellipse_6" data-name="Ellipse 6" cx="42.5" cy="42.5" r="42.5" transform="translate(171.5 420.5)" fill="#ee4b4c"/>
    <path id="Icon_awesome-grin-wink" data-name="Icon awesome-grin-wink" d="M0,50.44A49.877,49.877,0,1,0,49.877.563,49.869,49.869,0,0,0,0,50.44Zm40.224-9.654a6.436,6.436,0,1,1-6.436-6.436A6.429,6.429,0,0,1,40.224,40.786Zm33.788,5.028L72.1,44.1c-2.977-2.655-9.292-2.655-12.268,0l-1.911,1.71a2.409,2.409,0,0,1-3.982-2.172c.8-5.068,6.878-8.467,12.047-8.467s11.242,3.4,12.047,8.467A2.442,2.442,0,0,1,74.011,45.814ZM25.12,63.472c6.074,1.951,15.1,3.057,24.758,3.057s18.684-1.106,24.758-3.057a3.227,3.227,0,0,1,4.163,3.6c-1.85,11.061-16.733,18.764-28.921,18.764s-27.05-7.7-28.921-18.764A3.217,3.217,0,0,1,25.12,63.472Z" transform="translate(164.123 412.56)" fill="#fff"/>
    <g transform="matrix(1, 0, 0, 1, 13, 258)" filter="url(#Ellipse_7)">
      <circle id="Ellipse_7-2" data-name="Ellipse 7" cx="21" cy="21" r="21" transform="translate(58 397)" fill="#ee4b4c" opacity="0.53"/>
    </g>
    <g transform="matrix(1, 0, 0, 1, 13, 258)" filter="url(#Ellipse_8)">
      <ellipse id="Ellipse_8-2" data-name="Ellipse 8" cx="14.5" cy="15" rx="14.5" ry="15" transform="translate(9 294)" fill="#ee4b4c" opacity="0.53"/>
    </g>
    <g transform="matrix(1, 0, 0, 1, 13, 258)" filter="url(#Ellipse_9)">
      <ellipse id="Ellipse_9-2" data-name="Ellipse 9" cx="9" cy="9.5" rx="9" ry="9.5" transform="translate(28 101)" fill="#ee4b4c" opacity="0.53"/>
    </g>
    <g transform="matrix(1, 0, 0, 1, 13, 258)" filter="url(#Ellipse_10)">
      <ellipse id="Ellipse_10-2" data-name="Ellipse 10" cx="18" cy="19" rx="18" ry="19" transform="translate(79 6)" fill="#ee4b4c" opacity="0.53"/>
    </g>
    <g transform="matrix(1, 0, 0, 1, 13, 258)" filter="url(#Ellipse_12)">
      <circle id="Ellipse_12-2" data-name="Ellipse 12" cx="12.5" cy="12.5" r="12.5" transform="translate(201 372)" fill="#ee4b4c" opacity="0.53"/>
    </g>
    <g transform="matrix(1, 0, 0, 1, 13, 258)" filter="url(#Ellipse_13)">
      <circle id="Ellipse_13-2" data-name="Ellipse 13" cx="12.5" cy="12.5" r="12.5" transform="translate(276 13)" fill="#ee4b4c" opacity="0.53"/>
    </g>
    <g transform="matrix(1, 0, 0, 1, 13, 258)" filter="url(#Ellipse_14)">
      <circle id="Ellipse_14-2" data-name="Ellipse 14" cx="25.5" cy="25.5" r="25.5" transform="translate(345 216)" fill="#ee4b4c" opacity="0.53"/>
    </g>
    <g transform="matrix(1, 0, 0, 1, 13, 258)" filter="url(#Ellipse_15)">
      <circle id="Ellipse_15-2" data-name="Ellipse 15" cx="2.5" cy="2.5" r="2.5" transform="translate(276 291)" fill="#ee4b4c" opacity="0.53"/>
    </g>
    <g transform="matrix(1, 0, 0, 1, 13, 258)" filter="url(#Ellipse_16)">
      <circle id="Ellipse_16-2" data-name="Ellipse 16" cx="3.5" cy="3.5" r="3.5" transform="translate(93 307)" fill="#ee4b4c" opacity="0.53"/>
    </g>
    <g transform="matrix(1, 0, 0, 1, 13, 258)" filter="url(#Ellipse_17)">
      <circle id="Ellipse_17-2" data-name="Ellipse 17" cx="3.5" cy="3.5" r="3.5" transform="translate(64 178)" fill="#ee4b4c" opacity="0.53"/>
    </g>
    <g transform="matrix(1, 0, 0, 1, 13, 258)" filter="url(#Ellipse_18)">
      <circle id="Ellipse_18-2" data-name="Ellipse 18" cx="4" cy="4" r="4" transform="translate(174 86)" fill="#ee4b4c" opacity="0.53"/>
    </g>
    <g transform="matrix(1, 0, 0, 1, 13, 258)" filter="url(#Ellipse_19)">
      <ellipse id="Ellipse_19-2" data-name="Ellipse 19" cx="9" cy="9.5" rx="9" ry="9.5" transform="translate(353 101)" fill="#ee4b4c" opacity="0.53"/>
    </g>
    <g transform="matrix(1, 0, 0, 1, 13, 258)" filter="url(#Ellipse_20)">
      <circle id="Ellipse_20-2" data-name="Ellipse 20" cx="21" cy="21" r="21" transform="translate(301 412)" fill="#ee4b4c" opacity="0.53"/>
    </g>
    <g transform="matrix(1, 0, 0, 1, 13, 258)" filter="url(#Ellipse_21)">
      <circle id="Ellipse_21-2" data-name="Ellipse 21" cx="2.5" cy="2.5" r="2.5" transform="translate(308 200)" fill="#ee4b4c" opacity="0.53"/>
    </g>
  </g>
</svg>
