<svg xmlns="http://www.w3.org/2000/svg" width="171" height="171" viewBox="0 0 171 171">
  <g id="Group_5" data-name="Group 5" transform="translate(-129 -378)">
    <path id="Rectangle_27" data-name="Rectangle 27" d="M77,0H94a77,77,0,0,1,77,77V94a77,77,0,0,1-77,77H10A10,10,0,0,1,0,161V77A77,77,0,0,1,77,0Z" transform="translate(129 378)" fill="#ee4b4c"/>
    <path id="Icon_awesome-grin-wink" data-name="Icon awesome-grin-wink" d="M0,50.44A49.877,49.877,0,1,0,49.877.563,49.869,49.869,0,0,0,0,50.44Zm40.224-9.654a6.436,6.436,0,1,1-6.436-6.436A6.429,6.429,0,0,1,40.224,40.786Zm33.788,5.028L72.1,44.1c-2.977-2.655-9.292-2.655-12.268,0l-1.911,1.71a2.409,2.409,0,0,1-3.982-2.172c.8-5.068,6.878-8.467,12.047-8.467s11.242,3.4,12.047,8.467A2.442,2.442,0,0,1,74.011,45.814ZM25.12,63.472c6.074,1.951,15.1,3.057,24.758,3.057s18.684-1.106,24.758-3.057a3.227,3.227,0,0,1,4.163,3.6c-1.85,11.061-16.733,18.764-28.921,18.764s-27.05-7.7-28.921-18.764A3.217,3.217,0,0,1,25.12,63.472Z" transform="translate(164.123 412.56)" fill="#fff"/>
  </g>
</svg>
