<svg xmlns="http://www.w3.org/2000/svg" width="730" height="730" viewBox="0 0 730 730">
  <path id="Subtraction_3" data-name="Subtraction 3" d="M450,730H0V280a282.072,282.072,0,0,1,5.689-56.43A278.47,278.47,0,0,1,47.82,123.449,280.816,280.816,0,0,1,171.011,22,278.592,278.592,0,0,1,223.57,5.689,282.072,282.072,0,0,1,280,0H450a282.072,282.072,0,0,1,56.43,5.689A278.47,278.47,0,0,1,606.551,47.82,280.816,280.816,0,0,1,708,171.011a278.593,278.593,0,0,1,16.315,52.559A282.071,282.071,0,0,1,730,280V450a282.071,282.071,0,0,1-5.689,56.43A278.469,278.469,0,0,1,682.18,606.551,280.816,280.816,0,0,1,558.989,708a278.593,278.593,0,0,1-52.559,16.315A282.071,282.071,0,0,1,450,730ZM363.47,150c-117.457,0-213.015,95.558-213.015,213.015S246.013,576.031,363.47,576.031s213.015-95.558,213.015-213.015S480.926,150,363.47,150Zm0,364.187a137.3,137.3,0,0,1-19.924-1.506,157.731,157.731,0,0,1-20.211-4.373,163.113,163.113,0,0,1-19.714-7.022,151.985,151.985,0,0,1-18.432-9.454,129.03,129.03,0,0,1-16.367-11.668A102.123,102.123,0,0,1,255.3,466.5c-8.268-10.2-13.432-21.115-15.349-32.451a13.719,13.719,0,0,1,.322-6.094,13.574,13.574,0,0,1,2.711-5.062,13.64,13.64,0,0,1,14.746-4.219c25.833,8.3,64.372,13.055,105.735,13.055s79.9-4.759,105.734-13.055a13.8,13.8,0,0,1,17.409,9.26,13.822,13.822,0,0,1,.371,6.115C479.083,481.277,415.549,514.189,363.47,514.189ZM294.755,349.274a27.4,27.4,0,1,1,10.709-2.157A27.376,27.376,0,0,1,294.755,349.274Zm96.308-3.389a10.668,10.668,0,0,1-8.022-3.708,9.98,9.98,0,0,1-2.221-8.193c3.433-21.63,29.375-36.16,51.45-36.16s48.016,14.53,51.449,36.16a10.073,10.073,0,0,1-2.345,8.163,10.808,10.808,0,0,1-8.061,3.708,10.208,10.208,0,0,1-6.773-2.593l-8.16-7.3a31.769,31.769,0,0,0-11.762-6.377,50.076,50.076,0,0,0-28.871,0,31.773,31.773,0,0,0-11.762,6.377l-8.16,7.3A10.041,10.041,0,0,1,391.063,345.885Z" transform="translate(0)" fill="#ee4b4c"/>
</svg>
