<svg xmlns="http://www.w3.org/2000/svg" width="178" height="178" viewBox="0 0 178 178">
  <g id="Group_7" data-name="Group 7" transform="translate(-228 714)">
    <circle id="Ellipse_25" data-name="Ellipse 25" cx="89" cy="89" r="89" transform="translate(228 -714)" fill="#c2c2c2"/>
    <g id="Group_6" data-name="Group 6">
      <path id="Subtraction_2" data-name="Subtraction 2" d="M133.967,56.382H18.034c-.023-.673-.034-1.345-.034-2A57.658,57.658,0,0,1,28.369,21.277,58.191,58.191,0,0,1,54.964.315,23.538,23.538,0,0,0,75.5,12.382,23.488,23.488,0,0,0,96.209,0,58.019,58.019,0,0,1,134,54.382c0,.664-.011,1.337-.033,2Z" transform="translate(241 -641.382)" fill="#747474"/>
      <circle id="Ellipse_24" data-name="Ellipse 24" cx="23" cy="23" r="23" transform="translate(294 -683)" fill="#747474"/>
    </g>
  </g>
</svg>
